# AST/ASF file generated using VICON BodyLanguage
# -----------------------------------------------
:version 1.10
:name VICON
:units
  mass 1.0
  length 0.45
  angle deg
:documentation
   .ast/.asf automatically generated from VICON data using
   VICON BodyBuilder and BodyLanguage model FoxedUp or BRILLIANT.MOD
:root
   order TX TY TZ RX RY RZ
   axis XYZ
   position 0 0 0  
   orientation 0 0 0 
:bonedata
  begin
     id 1 
     name lhipjoint
     direction 0.702568 -0.596508 0.388042 
     length 2.56661 
     axis 0 0 0  XYZ
  end
  begin
     id 2 
     name lfemur
     direction 0.34202 -0.939693 0  
     length 6.58374  
     axis 0 0 20  XYZ
    dof rx ry rz
    limits (-160.0 20.0)
           (-70.0 70.0)
           (-60.0 70.0)
  end
  begin
     id 3 
     name ltibia
     direction 0.34202 -0.939693 0   
     length 6.62538   
     axis 0 0 20   XYZ
    dof rx
    limits (-10.0 170.0)
  end
  begin
     id 4 
     name lfoot
     direction 0.10455 -0.287249 0.952133   
     length 2.26699   
     axis -90 7.62852e-016 20   XYZ
    dof rx rz
    limits (-45.0 90.0)
           (-70.0 20.0)
  end
  begin
     id 5 
     name ltoes
     direction 1.53572e-011 -4.22322e-011 1   
     length 1.12949   
     axis -90 7.62852e-016 20   XYZ
    dof rx
    limits (-90.0 20.0)
  end
  begin
     id 6 
     name rhipjoint
     direction -0.728055 -0.574632 0.373811   
     length 2.66432  
     axis 0 0 0  XYZ 
  end
  begin
     id 7 
     name rfemur
     direction -0.34202 -0.939693 0   
     length 6.66732   
     axis 0 0 -20   XYZ
    dof rx ry rz
    limits (-160.0 20.0)
           (-70.0 70.0)
           (-70.0 60.0)
  end
  begin
     id 8 
     name rtibia
     direction -0.34202 -0.939693 0   
     length 6.59288   
     axis 0 0 -20   XYZ
    dof rx
    limits (-10.0 170.0)
 end
 begin
     id 9 
     name rfoot
     direction -0.119193 -0.327479 0.93731   
     length 2.38061  
     axis -90 -7.62852e-016 -20   XYZ
    dof rx rz
    limits (-45.0 90.0)
           (-20.0 70.0)
  end
  begin
     id 10 
     name rtoes
     direction -1.53547e-011 -4.21827e-011 1   
     length 1.17899   
     axis -90 -7.62852e-016 -20   XYZ
    dof rx
    limits (-90.0 20.0)
  end
  begin
     id 11 
     name lowerback
     direction -0.000416114 0.999912 -0.0132284   
     length 2.12109   
     axis 0 0 0   XYZ
    dof rx ry rz
    limits (-20.0 45.0)
           (-30.0 30.0)
           (-30.0 30.0)
  end
  begin
     id 12 
     name upperback
     direction -0.00136371 0.99809 0.0617608   
     length 2.10067   
     axis 0 0 0   XYZ
    dof rx ry rz
    limits (-20.0 45.0)
           (-30.0 30.0)
           (-30.0 30.0)
  end
  begin
     id 13 
     name thorax
     direction -3.43026e-005 0.997776 0.0666515   
     length 2.10618   
     axis 0 0 0   XYZ
    dof rx ry rz
    limits (-20.0 45.0)
           (-30.0 30.0)
           (-30.0 30.0)
  end
  begin
     id 14 
     name lowerneck
     direction 0.0398646 0.998418 0.0396592   
     length 1.83817   
     axis 0 0 0   XYZ
    dof rx ry rz
    limits (-20.0 45.0)
           (-30.0 30.0)
           (-30.0 30.0)
  end
  begin
     id 15 
     name upperneck
     direction -0.0367268 0.961527 -0.272244   
     length 1.81975   
     axis 0 0 0   XYZ
    dof rx ry rz
    limits (-20.0 45.0)
           (-30.0 30.0)
           (-30.0 30.0)
  end
  begin
     id 16
     name head
     direction -0.0182665 0.99536 -0.0944669  
     length 1.86026  
     axis 0 0 0   XYZ
    dof rx ry rz
    limits (-20.0 45.0)
           (-30.0 30.0)
           (-30.0 30.0)
  end
  begin
     id 17 
     name lclavicle
     direction 0.924239 0.361045 0.124212  
     length 3.26878  
     axis 0 0 0   XYZ
    dof ry rz
    limits (-20.0 10.0)
           (0.0 20.0)
  end
  begin
     id 18 
     name lhumerus
     direction 1 -4.48968e-011 -2.56583e-027   
     length 4.58538   
     axis 180 -30 -90   XYZ
    dof rx ry rz
    limits (-60.0 90.0)
           (-90.0 90.0)
           (-90.0 90.0)
  end
  begin
     id 19
     name lradius
     direction 1 -4.4898e-011 -5.50375e-027   
     length 2.68935   
     axis 180 -30 -90   XYZ
    dof rx
    limits (-10.0 170.0)
  end
  begin
     id 20
     name lwrist
     direction 1 -4.48939e-011 -1.48955e-026   
     length 1.34468   
     axis 9.0955e-015 90 90   XYZ
    dof ry
    limits (-180.0 0.0)
 end
  begin
     id 21 
     name lhand
     direction 1 -4.48936e-011 -2.97907e-026   
     length 0.585058   
     axis 1.90115e-014 90 90   XYZ
    dof rx rz
    limits (-90.0 90.0)
           (-45.0 45.0)
  end
  begin
     id 22 
     name lfingers
     direction 1 -4.49082e-011 -5.96235e-026   
     length 0.471689   
     axis 3.80223e-014 90 90   XYZ
    dof rx
    limits (0.0 90.0)
  end
  begin
     id 23
     name lthumb
     direction 0.707107 -6.3489e-011 0.707107   
     length 0.677253   
     axis -90 45 -3.84942e-014   XYZ
    dof rx rz
    limits (-45.0 45.0)
           (-45.0 45.0)
  end
  begin
     id 24 
     name rclavicle
     direction -0.923098 0.371783 0.0983239   
     length 3.19656  
     axis 0 0 0   XYZ 
    dof ry rz
    limits (-10.0 20.0)
           (-20.0 0.0)
  end
  begin
     id 25 
     name rhumerus
     direction -1 -4.48976e-011 -2.5492e-027  
     length 4.4745   
     axis 180 30 90   XYZ
    dof rx ry rz
    limits (-90.0 60.0)
           (-90.0 90.0)
           (-90.0 90.0)
  end
  begin
     id 26 
     name rradius
     direction -1 -4.48941e-011 -4.36555e-027   
     length 2.93896   
     axis 180 30 90   XYZ
    dof rx
    limits (-10.0 170.0)
  end
  begin
     id 27 
     name rwrist
     direction -1 -4.49044e-011 -1.49032e-026   
     length 1.46948   
     axis 9.0955e-015 -90 -90   XYZ
    dof ry
    limits (-180.0 0.0)
  end
  begin
     id 28
     name rhand
     direction -1 -4.48826e-011 -2.97749e-026   
     length 0.405092   
     axis 1.90115e-014 -90 -90   XYZ
    dof rx rz
    limits (-90.0 90.0)
           (-45.0 45.0)
  end
  begin
     id 29
     name rfingers
     direction -1 -4.49209e-011 -5.96602e-026   
     length 0.326596   
     axis 3.80223e-014 -90 -90   XYZ
    dof rx
    limits (0.0 90.0)
  end
  begin
     id 30
     name rthumb
     direction -0.707107 -6.34776e-011 0.707107   
     length 0.468928   
     axis -90 -45 3.84942e-014   XYZ
    dof rx rz
    limits (-45.0 45.0)
           (-45.0 45.0)
  end
:hierarchy
  begin
    root lhipjoint rhipjoint lowerback
    lhipjoint lfemur
    lfemur ltibia
    ltibia lfoot
    lfoot ltoes
    rhipjoint rfemur
    rfemur rtibia
    rtibia rfoot
    rfoot rtoes
    lowerback upperback
    upperback thorax
    thorax lowerneck lclavicle rclavicle
    lowerneck upperneck
    upperneck head
    lclavicle lhumerus
    lhumerus lradius
    lradius lwrist
    lwrist lhand lthumb
    lhand lfingers
    rclavicle rhumerus
    rhumerus rradius
    rradius rwrist
    rwrist rhand rthumb
    rhand rfingers
  end

#!OML:ASF H:\Punching\Project 1\Capture day 1\Session 1\female.ASF
:FULLY-SPECIFIED
:DEGREES
193
root 0.261529 15.5666 3.8155 9.09654 -5.43178 -2.71768
lowerback -0.340999 -2.30447 1.49178
upperback -5.74114 -3.0054 1.08117
thorax -5.77123 -1.54311 0.430081
lowerneck -11.5486 -0.053452 5.91429
upperneck 36.5511 -0.41876 -4.14835
head 14.469 0.00456078 -2.84911
rclavicle -3.08116e-015 -1.28216e-014
rhumerus -23.2038 6.91639 -79.59
rradius 76.2941
rwrist -35.3906
rhand -15.4092 -18.0151
rfingers 7.12502
rthumb 10.77 -47.719
lclavicle -3.08116e-015 -1.28216e-014
lhumerus -25.7609 -7.6792 80.005
lradius 97.6509
lwrist 9.46435
lhand -7.81098 23.0472
lfingers 7.12502
lthumb 18.0907 52.2259
rfemur -25.7297 2.08814 19.8308
rtibia 43.7315
rfoot -17.4345 -6.81117
rtoes -8.76651
lfemur -17.9136 -2.13405 -16.5808
ltibia 32.5261
lfoot -23.237 20.9812
ltoes 1.52885
194
root 0.285371 15.5635 3.81722 8.85238 -5.39865 -2.28891
lowerback -0.15173 -2.16658 1.11966
upperback -5.71088 -2.83798 0.871333
thorax -5.83768 -1.44669 0.419054
lowerneck -11.4037 0.313015 6.46188
upperneck 36.4082 0.0428437 -4.25156
head 14.4048 0.268576 -2.91272
rclavicle 3.557e-014 1.2921e-015
rhumerus -21.9517 7.09475 -79.6147
rradius 78.5354
rwrist -35.9893
rhand -15.5777 -17.6988
rfingers 7.12502
rthumb 10.6075 -47.4111
lclavicle 3.557e-014 1.2921e-015
lhumerus -23.8595 -8.57033 79.6263
lradius 99.3583
lwrist 9.70564
lhand -8.20744 22.8562
lfingers 7.12502
lthumb 17.7092 52.0697
rfemur -26.8608 1.53757 19.2267
rtibia 46.0041
rfoot -16.7454 -6.19643
rtoes -9.19664
lfemur -17.5554 -1.91863 -17.1752
ltibia 32.1771
lfoot -22.8836 20.7929
ltoes 1.40209
195
root 0.308121 15.5598 3.81972 8.58693 -5.3169 -1.92917
lowerback 0.0790666 -2.03144 0.846949
upperback -5.67027 -2.67184 0.671062
thorax -5.92264 -1.35539 0.363443
lowerneck -11.2472 0.659154 6.98881
upperneck 36.2298 0.483949 -4.36033
head 14.3242 0.519651 -2.97709
rclavicle 8.87077e-015 -2.18663e-015
rhumerus -20.6766 7.28063 -79.6338
rradius 80.7147
rwrist -36.4694
rhand -15.6828 -17.3732
rfingers 7.12502
rthumb 10.5061 -47.0906
lclavicle 8.87077e-015 -2.18663e-015
lhumerus -21.9409 -9.44377 79.2246
lradius 101.01
lwrist 9.96217
lhand -8.60689 22.678
lfingers 7.12502
lthumb 17.3248 51.9258
rfemur -27.916 1.06024 18.6694
rtibia 48.1275
rfoot -15.9667 -5.54825
rtoes -9.33082
lfemur -17.1969 -1.69673 -17.6835
ltibia 31.8822
lfoot -22.56 20.5777
ltoes 1.23959
196
root 0.329454 15.5556 3.82336 8.31191 -5.18012 -1.64606
lowerback 0.342725 -1.90629 0.674783
upperback -5.62721 -2.51606 0.486975
thorax -6.02842 -1.2737 0.269396
lowerneck -11.0755 0.988428 7.49728
upperneck 36.0213 0.909379 -4.47557
head 14.2292 0.760066 -3.04249
rclavicle 2.34193e-014 -4.37326e-015
rhumerus -19.3937 7.48105 -79.6506
rradius 82.8381
rwrist -36.8412
rhand -15.7109 -17.0718
rfingers 7.12502
rthumb 10.4791 -46.7907
lclavicle 2.34193e-014 -4.37326e-015
lhumerus -20.0386 -10.2801 78.8072
lradius 102.624
lwrist 10.2292
lhand -9.01466 22.4987
lfingers 7.12502
lthumb 16.9323 51.7807
rfemur -28.8783 0.637718 18.1703
rtibia 50.0509
rfoot -15.1671 -4.88956
rtoes -9.29211
lfemur -16.8558 -1.48239 -18.0952
ltibia 31.6556
lfoot -22.2771 20.3418
ltoes 1.04246
197
root 0.348984 15.5509 3.82843 8.04673 -4.98092 -1.43421
lowerback 0.607908 -1.79462 0.586953
upperback -5.58049 -2.37524 0.325567
thorax -6.13403 -1.20309 0.151523
lowerneck -10.8938 1.29895 7.97667
upperneck 35.7779 1.31762 -4.59475
head 14.1183 0.987942 -3.1061
rclavicle 5.28022e-015 -3.37934e-015
rhumerus -18.0988 7.69009 -79.6555
rradius 84.9118
rwrist -37.1253
rhand -15.6657 -16.8062
rfingers 7.12502
rthumb 10.5226 -46.5228
lclavicle 5.28022e-015 -3.37934e-015
lhumerus -18.1566 -11.0741 78.3881
lradius 104.201
lwrist 10.4973
lhand -9.461 22.2821
lfingers 7.12502
lthumb 16.5026 51.6003
rfemur -29.7462 0.244141 17.7282
rtibia 51.734
rfoot -14.47 -4.26246
rtoes -9.16029
lfemur -16.5557 -1.30016 -18.4144
ltibia 31.5019
lfoot -22.0394 20.0994
ltoes 0.832598
198
root 0.366427 15.5463 3.83529 7.80552 -4.71657 -1.28959
lowerback 0.852285 -1.6967 0.573051
upperback -5.53548 -2.24931 0.190626
thorax -6.23129 -1.14299 0.0190229
lowerneck -10.7063 1.58439 8.41591
upperneck 35.5103 1.69997 -4.71377
head 13.9961 1.19872 -3.16597
rclavicle -2.08724e-014 -5.76476e-015
rhumerus -16.8048 7.89932 -79.6427
rradius 86.9393
rwrist -37.3416
rhand -15.5685 -16.57
rfingers 7.12502
rthumb 10.6164 -46.2819
lclavicle -2.08724e-014 -5.76476e-015
lhumerus -16.3077 -11.8235 77.9855
lradius 105.744
lwrist 10.7539
lhand -9.92931 22.0428
lfingers 7.12502
lthumb 16.0517 51.3979
rfemur -30.5174 -0.139628 17.3423
rtibia 53.1421
rfoot -13.943 -3.72924
rtoes -9.03479
lfemur -16.3073 -1.16099 -18.645
ltibia 31.4141
lfoot -21.8399 19.8597
ltoes 0.616229
199
root 0.381544 15.5424 3.84404 7.60557 -4.38843 -1.20581
lowerback 1.05162 -1.61355 0.620931
upperback -5.48953 -2.13961 0.0824904
thorax -6.30269 -1.0935 -0.121463
lowerneck -10.5315 1.84401 8.8098
upperneck 35.2205 2.05258 -4.82736
head 13.8667 1.3906 -3.2197
rclavicle -3.51725e-014 9.34288e-015
rhumerus -15.5029 8.10513 -79.6152
rradius 88.9214
rwrist -37.521
rhand -15.4512 -16.3102
rfingers 7.12502
rthumb 10.7295 -46.0162
lclavicle -3.51725e-014 9.34288e-015
lhumerus -14.4819 -12.5285 77.5966
lradius 107.244
lwrist 11.0017
lhand -10.4151 21.7823
lfingers 7.12502
lthumb 15.5839 51.1744
rfemur -31.2034 -0.518523 17.0052
rtibia 54.2458
rfoot -13.5955 -3.34356
rtoes -8.91268
lfemur -16.1254 -1.07307 -18.7934
ltibia 31.3794
lfoot -21.6649 19.6285
ltoes 0.406322
200
root 0.394321 15.54 3.85498 7.45294 -3.99724 -1.17564
lowerback 1.19809 -1.54281 0.723562
upperback -5.44524 -2.04298 0.000100873
thorax -6.34611 -1.05269 -0.267118
lowerneck -10.3691 2.07298 9.14906
upperneck 34.9105 2.36823 -4.93003
head 13.7296 1.55997 -3.26446
rclavicle -4.11236e-015 -9.34288e-015
rhumerus -14.2029 8.30457 -79.5701
rradius 90.8608
rwrist -37.6833
rhand -15.3269 -15.9856
rfingers 7.12502
rthumb 10.8495 -45.6853
lclavicle -4.11236e-015 -9.34288e-015
lhumerus -12.6932 -13.1937 77.2382
lradius 108.701
lwrist 11.2326
lhand -10.9183 21.4975
lfingers 7.12502
lthumb 15.0992 50.9268
rfemur -31.805 -0.888841 16.7049
rtibia 55.0172
rfoot -13.3996 -3.14349
rtoes -8.79595
lfemur -16.0077 -1.04026 -18.8682
ltibia 31.379
lfoot -21.5008 19.4056
ltoes 0.224573
201
root 0.404761 15.5393 3.86799 7.34889 -3.55056 -1.19655
lowerback 1.29125 -1.48219 0.873902
upperback -5.40292 -1.9565 -0.0561421
thorax -6.36126 -1.01867 -0.413472
lowerneck -10.221 2.27241 9.43959
upperneck 34.5816 2.64811 -5.02691
head 13.5853 1.70747 -3.30325
rclavicle 2.37423e-014 7.95139e-016
rhumerus -12.9083 8.50005 -79.5109
rradius 92.7584
rwrist -37.8418
rhand -15.2312 -15.5551
rfingers 7.12502
rthumb 10.9418 -45.2499
lclavicle 2.37423e-014 7.95139e-016
lhumerus -10.9527 -13.8156 76.9183
lradius 110.115
lwrist 11.4519
lhand -11.4356 21.1941
lfingers 7.12502
lthumb 14.6009 50.6601
rfemur -32.3221 -1.22777 16.4318
rtibia 55.4336
rfoot -13.2911 -3.1412
rtoes -8.6364
lfemur -15.9491 -1.06125 -18.8732
ltibia 31.3965
lfoot -21.3361 19.1909
ltoes 0.079425
202
root 0.412944 15.5407 3.88329 7.28176 -3.05526 -1.25755
lowerback 1.36175 -1.43038 1.06502
upperback -5.37558 -1.87881 -0.0923541
thorax -6.37964 -0.990608 -0.561778
lowerneck -10.0789 2.4413 9.68313
upperneck 34.2481 2.89035 -5.1161
head 13.4379 1.83312 -3.3363
rclavicle -3.15695e-014 -3.57812e-015
rhumerus -11.6576 8.70603 -79.4453
rradius 94.6341
rwrist -38.0204
rhand -15.195 -15.0393
rfingers 7.12502
rthumb 10.9767 -44.7323
lclavicle -3.15695e-014 -3.57812e-015
lhumerus -9.29479 -14.4063 76.642
lradius 111.494
lwrist 11.6714
lhand -11.965 20.8926
lfingers 7.12502
lthumb 14.0907 50.3948
rfemur -32.739 -1.51171 16.1669
rtibia 55.4809
rfoot -13.217 -3.32516
rtoes -8.42512
lfemur -15.9278 -1.13727 -18.8213
ltibia 31.4143
lfoot -21.1671 18.9841
ltoes -0.0256147
203
root 0.418785 15.5437 3.90068 7.23861 -2.52362 -1.348
lowerback 1.40796 -1.38389 1.27651
upperback -5.35298 -1.80618 -0.107201
thorax -6.38863 -0.965498 -0.699644
lowerneck -9.9396 2.58045 9.87511
upperneck 33.9056 3.09764 -5.19863
head 13.2842 1.93738 -3.36267
rclavicle 1.68718e-014 -2.38542e-015
rhumerus -10.4459 8.92805 -79.3694
rradius 96.4945
rwrist -38.2075
rhand -15.2306 -14.4635
rfingers 7.12502
rthumb 10.9424 -44.1584
lclavicle 1.68718e-014 -2.38542e-015
lhumerus -7.72421 -14.9675 76.4178
lradius 112.84
lwrist 11.8847
lhand -12.5247 20.6034
lfingers 7.12502
lthumb 13.5513 50.1424
rfemur -33.0424 -1.70556 15.8891
rtibia 55.1543
rfoot -13.1418 -3.66923
rtoes -8.04534
lfemur -15.9249 -1.26321 -18.7248
ltibia 31.4213
lfoot -20.9936 18.7852
ltoes -0.0920644
204
root 0.42238 15.5476 3.92028 7.20086 -1.9672 -1.44966
lowerback 1.44734 -1.34151 1.4895
upperback -5.33306 -1.73809 -0.107098
thorax -6.39575 -0.942284 -0.822736
lowerneck -9.80458 2.69266 10.0156
upperneck 33.564 3.27302 -5.2719
head 13.1291 2.02217 -3.3812
rclavicle -2.40778e-014 1.05356e-014
rhumerus -9.28034 9.17225 -79.2943
rradius 98.3457
rwrist -38.3874
rhand -15.3519 -13.8517
rfingers 7.12502
rthumb 10.8253 -43.5527
lclavicle -2.40778e-014 1.05356e-014
lhumerus -6.26856 -15.5035 76.2494
lradius 114.17
lwrist 12.0949
lhand -13.1014 20.3291
lfingers 7.12502
lthumb 12.9954 49.9044
rfemur -33.2109 -1.78798 15.5724
rtibia 54.4619
rfoot -13.0456 -4.14874
rtoes -7.5268
lfemur -15.9135 -1.43578 -18.6054
ltibia 31.4075
lfoot -20.8194 18.5981
ltoes -0.134297
205
root 0.42372 15.5521 3.94216 7.15915 -1.39303 -1.5526
lowerback 1.48525 -1.30287 1.68974
upperback -5.31134 -1.67481 -0.0941034
thorax -6.39902 -0.92037 -0.92511
lowerneck -9.67135 2.78032 10.1061
upperneck 33.2186 3.41962 -5.33584
head 12.9699 2.08906 -3.39152
rclavicle 8.23714e-015 -4.37326e-015
rhumerus -8.15895 9.44653 -79.2201
rradius 100.193
rwrist -38.5724
rhand -15.578 -13.2496
rfingers 7.12502
rthumb 10.6072 -42.9619
lclavicle 8.23714e-015 -4.37326e-015
lhumerus -4.93839 -16.0191 76.1313
lradius 115.497
lwrist 12.3066
lhand -13.692 20.1006
lfingers 7.12502
lthumb 12.4261 49.7112
rfemur -33.235 -1.74318 15.2029
rtibia 53.421
rfoot -12.9602 -4.74418
rtoes -6.89891
lfemur -15.8807 -1.65229 -18.4748
ltibia 31.3705
lfoot -20.6519 18.4215
ltoes -0.157604
